<svg id="bird" enable-background="new 0 0 300 300" height="512" viewBox="0 0 300 300" width="512" xmlns="http://www.w3.org/2000/svg" xmlns:xlink="http://www.w3.org/1999/xlink"><linearGradient id="SVGID_1_" gradientUnits="userSpaceOnUse" x1="77.599" x2="241.257" y1="212.514" y2="48.856"><stop offset="0" stop-color="#66FFFF"/><stop offset="1" stop-color="#CC66FF"/></linearGradient><g><path d="m275.309 82.989c-1.066-.748-2.414-.936-3.648-.502l-58.985 20.961c1.297-13.11-1.683-23.783-1.827-24.291-.391-1.361-1.473-2.418-2.844-2.773-1.371-.354-2.832.041-3.832 1.045l-44.059 44.059c-.247.247-.387.549-.556.836l-4.159 1.478c-3.41-4.062-5.562-7.369-7.496-10.336-1.969-3.021-3.668-5.631-6.074-8.037-9.172-9.172-18.551-9.172-26.828-9.172-9.402 0-22.266 8.471-27.254 21.24l-62.707 35.274c-1.809 1.018-2.539 3.248-1.684 5.139.859 1.887 3.008 2.816 4.977 2.119l64.648-22.816c5.621 10.586 26.41 43.621 78.445 70.691l-19.887 34.35c-.766 1.318-.711 2.955.133 4.223.137.203 10.48 15.268 30.43 15.268 6.539-.002 14.109-1.619 22.688-5.908.926-.465 1.637-1.27 1.984-2.248.844-2.393 19.527-56.639-5.832-89.463l32.43-14.34c26.094-10.035 43.629-35.566 43.629-63.527 0-1.301-.633-2.52-1.692-3.27zm-44.992 59.405-37.531 16.59c-1.191.527-2.051 1.602-2.305 2.879s.129 2.6 1.027 3.541c24.766 25.932 11.113 74.738 8.219 83.994-3.402 1.586-6.564 2.627-9.54 3.318l6.736-33.673c.434-2.166-.973-4.273-3.137-4.707-2.195-.445-4.277.975-4.707 3.137l-7.25 36.245c-3.721-.021-6.982-.68-9.81-1.68l8.658-20.204c.871-2.031-.07-4.383-2.102-5.252-2.016-.873-4.379.068-5.25 2.1l-8.439 19.693c-2.278-1.601-3.969-3.251-5.057-4.471l20.633-35.643c.555-.955.688-2.096.371-3.152s-1.055-1.936-2.043-2.43c-61.742-30.871-79.938-71.598-80.117-72.004-.832-1.932-3.027-2.887-5.004-2.189l-24.527 8.656 23.82-13.398c.867-.486 1.52-1.279 1.832-2.221 3.566-10.697 14.172-17.266 20.207-17.266 7.695 0 14.344 0 21.172 6.828 1.816 1.816 3.234 3.992 5.027 6.746 2.277 3.5 5.113 7.854 9.973 13.314.043.049.101.075.146.122.034.034.045.081.08.115l9.461 9.021c.777.738 1.77 1.105 2.762 1.105 1.055 0 2.109-.416 2.895-1.24 1.523-1.598 1.465-4.131-.133-5.654l-4.756-4.535 107.092-38.055c-2.196 22.362-17.012 42.139-38.403 50.37zm-169.316-76.766v-5.658c0-2.209 1.789-4 4-4s4 1.791 4 4v5.658c0 2.209-1.789 4-4 4s-4-1.791-4-4zm0 22.637v-5.658c0-2.209 1.789-4 4-4s4 1.791 4 4v5.658c0 2.209-1.789 4-4 4s-4-1.791-4-4zm-14.149-14.147c0-2.209 1.789-4 4-4h5.66c2.211 0 4 1.791 4 4s-1.789 4-4 4h-5.66c-2.211 0-4-1.791-4-4zm22.637 0c0-2.209 1.789-4 4-4h5.66c2.211 0 4 1.791 4 4s-1.789 4-4 4h-5.66c-2.211 0-4-1.791-4-4zm35.512-31.861c0-2.209 1.791-4 4-4s4 1.791 4 4-1.791 4-4 4-4-1.791-4-4zm48 36c6.617 0 12-5.383 12-12s-5.383-12-12-12-12 5.383-12 12 5.382 12 12 12zm0-16c2.207 0 4 1.795 4 4s-1.793 4-4 4-4-1.795-4-4 1.793-4 4-4zm-35.901 56c0 2.264-1.835 4.099-4.099 4.099s-4.099-1.835-4.099-4.099 1.835-4.099 4.099-4.099 4.099 1.835 4.099 4.099z" fill="url(#SVGID_1_)"/></g></svg>