<?xml version="1.0" encoding="iso-8859-1"?>
<!-- Generator: Adobe Illustrator 18.1.1, SVG Export Plug-In . SVG Version: 6.00 Build 0)  -->
<svg version="1.1" id="Capa_1" xmlns="http://www.w3.org/2000/svg" xmlns:xlink="http://www.w3.org/1999/xlink" x="0px" y="0px"
	 viewBox="0 0 612.002 612.002" style="enable-background:new 0 0 612.002 612.002;" xml:space="preserve">
<g>
	<path d="M399.679,50.724H212.321C95.246,50.724,0,145.97,0,263.045s95.246,212.321,212.321,212.321h141.583l59.555,75.194
		c5.441,6.871,13.653,10.718,22.157,10.718c2.395,0,4.817-0.306,7.203-0.934c10.861-2.863,18.997-11.884,20.726-22.982
		l11.824-75.908c36.48-13.98,68.999-38.146,92.906-69.329c28.606-37.316,43.727-81.952,43.727-129.078
		C612,145.97,516.754,50.724,399.679,50.724z M202.077,311.385c-28.495,0-51.596-23.103-51.596-51.596s23.102-51.596,51.596-51.596
		c28.498,0,51.598,23.103,51.598,51.596C253.676,288.283,230.576,311.385,202.077,311.385z M409.921,311.385
		c-28.497,0-51.596-23.103-51.596-51.596s23.1-51.596,51.596-51.596s51.596,23.103,51.596,51.596
		C461.517,288.283,438.419,311.385,409.921,311.385z"/>
</g>
<g>
</g>
<g>
</g>
<g>
</g>
<g>
</g>
<g>
</g>
<g>
</g>
<g>
</g>
<g>
</g>
<g>
</g>
<g>
</g>
<g>
</g>
<g>
</g>
<g>
</g>
<g>
</g>
<g>
</g>
</svg>
