<?xml version="1.0" encoding="iso-8859-1"?>
<!-- Generator: Adobe Illustrator 19.0.0, SVG Export Plug-In . SVG Version: 6.00 Build 0)  -->
<svg version="1.1" id="Layer_1" xmlns="http://www.w3.org/2000/svg" xmlns:xlink="http://www.w3.org/1999/xlink" x="0px" y="0px"
	 viewBox="0 0 512 512" style="enable-background:new 0 0 512 512;" xml:space="preserve">
<g>
	<path style="fill:#4D4D4D;" d="M151.147,512H44.11v-80.824h107.037V512z"/>
	<path style="fill:#4D4D4D;" d="M467.89,512H360.853v-80.824H467.89V512z"/>
</g>
<polygon style="fill:#C7EAF0;" points="340.16,19.162 313.579,0 256,79.865 198.421,0 171.84,19.162 242.71,117.461 256,107.88 
	269.29,117.461 "/>
<polygon style="fill:#88DEE0;" points="340.16,19.162 313.579,0 256,79.865 256,107.88 269.29,117.461 "/>
<path style="fill:#808181;" d="M507.21,463.943H4.79V91.497H507.21V463.943z"/>
<path style="fill:#666666;" d="M507.21,463.943H256V91.497h251.21V463.943z"/>
<path style="fill:#A9ACAE;" d="M507.21,463.943H4.79V337.246H507.21V463.943z"/>
<path style="fill:#808181;" d="M507.21,463.943H256V337.246h251.21V463.943z"/>
<path style="fill:#EBECEC;" d="M356.484,409.332H59.401V146.108h297.083V409.332z"/>
<path style="fill:#CACDCD;" d="M356.484,409.332H256V146.108h100.484V409.332z"/>
<g>
	<rect x="443.865" y="136.057" style="fill:#333333;" width="28.398" height="32.766"/>
	<rect x="392.531" y="136.057" style="fill:#333333;" width="28.398" height="32.766"/>
	<rect x="443.865" y="180.62" style="fill:#333333;" width="28.398" height="32.766"/>
	<rect x="392.531" y="180.62" style="fill:#333333;" width="28.398" height="32.766"/>
	<rect x="443.865" y="225.182" style="fill:#333333;" width="28.398" height="32.766"/>
	<rect x="392.531" y="225.182" style="fill:#333333;" width="28.398" height="32.766"/>
	<rect x="443.865" y="269.744" style="fill:#333333;" width="28.398" height="32.766"/>
	<rect x="392.531" y="269.744" style="fill:#333333;" width="28.398" height="32.766"/>
</g>
<circle style="fill:#FD387E;" cx="406.73" cy="389.67" r="16.383"/>
<circle style="fill:#FBAC50;" cx="458.064" cy="389.67" r="16.383"/>
<g>
</g>
<g>
</g>
<g>
</g>
<g>
</g>
<g>
</g>
<g>
</g>
<g>
</g>
<g>
</g>
<g>
</g>
<g>
</g>
<g>
</g>
<g>
</g>
<g>
</g>
<g>
</g>
<g>
</g>
</svg>
